<svg width="161" height="68" viewBox="0 0 161 68" fill="none" xmlns="http://www.w3.org/2000/svg">
<path d="M106.193 17.2278C104.74 21.2502 102.586 25.4024 99.6793 29.2951C96.7727 33.1877 93.1655 36.8209 89.1431 39.9351C85.1466 43.0751 80.7608 45.6703 76.401 47.7723C75.337 48.2913 74.1952 48.7844 73.1052 49.2515C72.0153 49.7187 70.9513 50.1858 69.9132 50.575C69.3942 50.7827 68.8752 50.9643 68.3562 51.1719C67.8372 51.3536 67.3181 51.5093 66.7991 51.6909C65.787 52.0543 64.749 52.3138 63.7628 52.6252C53.4083 55.5836 42.379 56.5438 31.2979 58.594C29.8965 58.8535 28.6249 59.087 27.2235 59.2687C25.8481 59.4504 24.4727 59.6061 23.0714 59.7618C20.2946 60.0732 17.4659 60.4105 14.6632 60.9036C12.068 61.3448 9.23937 61.9676 6.56639 62.9797C5.24288 63.4987 3.94532 64.0956 2.80347 64.8741C1.66162 65.6267 0.675475 66.561 -0.0252075 67.5731C1.55781 65.6267 4.10103 64.3292 6.74805 63.4987C9.42102 62.6683 12.2238 62.2271 14.8189 61.9676C17.6216 61.6822 20.4243 61.5524 23.2271 61.4226C24.6284 61.3707 26.0298 61.3188 27.4311 61.215C28.8325 61.1372 30.2858 60.9815 31.6352 60.8258C42.6904 59.6061 53.7457 59.6061 64.9306 57.3743C65.9946 57.1407 67.1105 56.9331 68.2264 56.6476C68.7973 56.5179 69.3683 56.3622 69.9392 56.2065C70.5101 56.0248 71.081 55.8691 71.6779 55.6874C72.8717 55.3501 74.0135 54.9348 75.2073 54.5196C76.401 54.0785 77.5688 53.6632 78.7886 53.1702C83.6414 51.1979 88.5721 48.5509 93.1395 45.2031C97.681 41.8554 101.859 37.8071 105.103 33.2656C108.373 28.7501 110.709 23.7415 111.928 18.9405C111.928 18.9405 111.98 18.6551 112.11 18.188C112.214 17.6949 112.395 17.0202 112.499 16.1638C112.811 14.4769 112.992 12.2192 112.966 9.96143C112.914 7.70368 112.603 5.47188 112.11 3.83695C111.617 2.20203 111.02 1.16398 110.449 1.18993C109.878 1.29373 109.567 2.43559 109.281 4.01861C108.996 5.60163 108.684 7.62582 108.295 9.59811C107.88 11.5704 107.413 13.4908 106.972 14.9181C106.79 15.6188 106.556 16.2157 106.427 16.6049C106.297 17.0202 106.219 17.2537 106.219 17.2537L106.193 17.2278Z" fill="white"/>
<path d="M158.639 18.2132C158.639 18.2132 158.535 18.4208 158.094 18.862C157.887 19.0696 157.575 19.3291 157.186 19.6405C156.771 19.926 156.252 20.2893 155.603 20.6785C154.305 21.4311 152.411 22.3135 149.79 23.1699C147.169 24.0262 143.769 24.8567 139.487 25.5574C135.205 26.258 130.482 26.7771 125.811 27.3999C121.14 27.9968 116.572 28.7494 112.576 29.7615C108.579 30.7476 105.232 32.0711 102.896 33.2389C101.754 33.8098 100.82 34.3289 100.223 34.7181C99.6002 35.0815 99.2888 35.2891 99.2888 35.2891C99.2888 35.2891 99.5742 35.0296 100.093 34.5365C100.612 34.0434 101.417 33.3687 102.455 32.5382C104.557 30.9293 107.749 28.957 111.719 27.2701C115.664 25.5833 120.309 24.1301 124.98 23.0401C129.678 21.9242 134.401 21.0678 138.605 20.3671C142.809 19.6924 146.131 19.1993 148.752 18.862C151.373 18.5246 153.319 18.291 154.772 18.1872C155.499 18.1353 156.096 18.1094 156.589 18.1094C157.082 18.1094 157.471 18.1094 157.757 18.1094C158.354 18.1613 158.587 18.2391 158.587 18.2391L158.639 18.2132Z" fill="white"/>
<path d="M120.831 3.81187C120.13 5.73226 119.507 7.99001 118.755 10.2737C118.002 12.5315 117.146 14.7892 116.315 16.5799C115.277 18.9414 113.954 21.1992 112.267 23.3272C111.852 23.8202 111.436 24.3652 110.969 24.8583C110.502 25.3254 110.035 25.8444 109.516 26.3115C109.023 26.7268 108.504 27.1679 107.959 27.6091C107.388 27.9984 106.817 28.3876 106.324 28.7769C106.921 28.5953 107.57 28.3357 108.218 28.0762C108.867 27.7648 109.516 27.4534 110.113 27.1679C110.762 26.8306 111.359 26.4673 112.007 26.1299C112.63 25.7666 113.201 25.3514 113.824 24.988C116.211 23.3531 118.391 21.4587 120.39 19.3047C121.947 17.6698 123.607 15.3601 124.853 12.7131C126.099 10.0921 126.825 7.10767 126.748 4.5385C126.748 4.5385 126.67 3.34475 126.306 2.17694C125.839 0.983189 125.087 -0.106761 123.971 -0.0548588C122.855 0.0489459 122.102 1.06104 121.635 1.96933C121.09 2.90358 120.831 3.75997 120.831 3.75997V3.81187Z" fill="white"/>
<path d="M78.7383 19.9803C78.7383 19.9803 78.92 19.9543 79.2573 19.9803C79.5947 20.0322 80.0878 20.1879 80.7366 20.5512C81.3334 20.9405 82.112 21.5633 82.8386 22.6014C83.5912 23.6135 84.3438 25.0667 84.8887 26.9612C85.4597 28.8556 85.6932 31.0874 85.6413 33.2673C85.5894 35.4472 85.2261 37.6011 84.6811 39.4177C84.1102 41.2603 83.3836 42.7395 82.7607 43.7256C82.4753 44.2187 82.1639 44.582 81.9822 44.8415C81.8005 45.101 81.6967 45.2308 81.6967 45.2308C81.6967 45.2308 81.7227 45.0751 81.7746 44.7637C81.8265 44.4523 81.9303 44.037 81.9822 43.4661C82.112 42.3762 82.1639 40.845 82.0601 39.1323C81.8006 35.7067 80.7625 31.6324 79.8023 28.4404C78.8681 25.2484 78.4788 23.302 78.4788 21.9526C78.4528 21.3038 78.5047 20.8107 78.5826 20.4734C78.6605 20.136 78.7383 19.9803 78.7383 19.9803Z" fill="white"/>
<path d="M75.7806 51.1199C75.7806 51.1199 76.0401 51.3016 76.7927 51.5611C77.1561 51.6909 77.6491 51.8466 78.2979 52.0023C78.9467 52.1839 79.7512 52.3915 80.7114 52.5732C82.6577 53.0144 85.3307 53.5074 88.9379 54.1822C92.5711 54.8569 97.1385 55.6614 102.977 56.6216C108.817 57.5558 115.408 58.4641 122.052 58.9053C125.373 59.1129 128.695 59.1908 131.939 59.1129C135.183 59.0091 138.297 58.7236 141.204 58.2825C147.043 57.4001 151.921 55.7392 155.243 54.3119C156.904 53.5593 158.202 52.9365 159.058 52.4694C159.914 52.0023 160.407 51.7428 160.407 51.7428C160.407 51.7428 159.888 51.9244 158.98 52.2618C158.072 52.6251 156.696 53.0403 154.984 53.5593C151.532 54.5195 146.627 55.4797 140.97 55.6614C138.141 55.7652 135.131 55.7392 132.017 55.5316C128.903 55.324 125.711 54.9607 122.519 54.5195C116.135 53.6372 109.699 52.3915 103.834 51.4573C97.9689 50.5231 93.2458 50.004 89.4829 49.8224C85.7199 49.6407 82.9172 49.7964 80.893 50.004C79.8809 50.1338 79.0505 50.2635 78.4017 50.3933C77.727 50.549 77.2339 50.6788 76.8446 50.8085C76.0921 51.0421 75.8325 51.1978 75.8325 51.1978L75.7806 51.1199Z" fill="white"/>
<path d="M65.2182 53.4545C65.2182 53.4545 65.4258 53.5583 66.0487 53.6102C66.3601 53.6362 66.7493 53.6102 67.2943 53.5583C67.5538 53.5324 67.8393 53.4805 68.1767 53.3767C68.4881 53.2729 68.8514 53.195 69.2407 53.0133C69.6299 52.8576 70.0451 52.676 70.4604 52.4165C70.9015 52.1829 71.3168 51.8455 71.7839 51.4822C72.6662 50.7296 73.6264 49.6656 74.379 48.2643C75.1316 46.8629 75.7544 45.0982 75.8842 43.0221C75.962 41.9841 75.8842 40.8682 75.7025 39.7263C75.4949 38.5585 75.1056 37.3648 74.5087 36.197C73.315 33.8354 71.187 31.6555 68.514 30.5396C67.1905 29.9687 65.8151 29.6313 64.4137 29.4756C63.7131 29.4497 63.0124 29.3718 62.3636 29.4237C62.0262 29.4237 61.6889 29.4237 61.3515 29.4756L60.3394 29.6054C57.6924 29.9687 54.9675 31.0327 52.9693 33.005C51.9831 33.9911 51.2046 35.1849 50.7634 36.4565C50.3222 37.754 50.2444 39.1295 50.5299 40.4011C50.8153 41.6727 51.516 42.7886 52.3983 43.5671C53.2807 44.3456 54.2928 44.8128 55.227 45.0204L55.5644 45.1242L55.9018 45.1761C56.1353 45.202 56.3689 45.228 56.5765 45.2799C57.0176 45.2799 57.4588 45.3318 57.8481 45.2799C58.6526 45.228 59.3792 45.0982 60.028 44.9685C61.3255 44.6311 62.2857 44.2678 62.9605 43.9823C63.6093 43.6969 63.9726 43.5412 63.9726 43.5412C63.9726 43.5412 63.5833 43.619 62.9086 43.7747C62.2338 43.9304 61.1958 44.0861 59.9501 44.164C59.3273 44.164 58.6266 44.164 57.9 44.0602C57.5367 44.0342 57.1734 43.9304 56.81 43.8526C56.6284 43.8007 56.4467 43.7228 56.2651 43.6709L55.9796 43.5931L55.7201 43.4633C54.2928 42.8664 53.1509 41.5429 53.0731 39.9858C52.9693 38.4288 53.8516 36.7679 55.2789 35.7298C56.7322 34.6658 58.6526 34.1209 60.6768 34.069H61.4294L62.1819 34.0949C62.701 34.0949 63.1681 34.1987 63.6352 34.2506C64.5694 34.4323 65.4518 34.7437 66.2303 35.133C67.7874 35.9115 68.9292 37.2091 69.6559 38.6104C70.0192 39.3111 70.2787 40.0637 70.4344 40.7903C70.5901 41.517 70.6939 42.2176 70.6939 42.8924C70.7458 44.2418 70.4863 45.4356 70.1749 46.4736C69.8375 47.5117 69.4223 48.3681 68.9811 49.0947C68.7476 49.4321 68.54 49.7954 68.2805 50.0809C68.0729 50.3923 67.8393 50.6518 67.6057 50.8853C67.3981 51.1449 67.1905 51.3525 66.9829 51.5601C66.8012 51.7677 66.6196 51.9493 66.4379 52.105C66.1006 52.4424 65.8411 52.7019 65.6334 52.8836C65.2182 53.2988 65.0885 53.5064 65.0885 53.5064L65.2182 53.4545Z" fill="white"/>
<path d="M98.1239 39.3624C98.1239 39.3624 98.3315 39.3883 98.7467 39.3624C99.1619 39.3105 99.7848 39.1548 100.615 38.9472C100.719 38.9212 100.823 38.8953 100.927 38.8693C101.03 38.8693 101.16 38.8174 101.29 38.8174C101.523 38.7655 101.783 38.7136 102.043 38.6617C102.328 38.6357 102.613 38.5838 102.899 38.5319C103.21 38.48 103.522 38.48 103.859 38.4541C104.196 38.4541 104.56 38.4541 104.949 38.4541C105.338 38.48 105.754 38.4541 106.195 38.5579C107.077 38.6357 108.115 38.8174 109.283 39.1029C111.644 39.6478 114.421 40.608 117.302 41.5163C120.182 42.4246 123.219 43.307 126.073 43.5405C127.501 43.6703 128.85 43.6184 130.044 43.4108C130.641 43.2551 131.186 43.1512 131.679 42.9436C131.912 42.8398 132.172 42.762 132.379 42.6582C132.587 42.5544 132.795 42.4246 132.976 42.3208C133.366 42.1391 133.651 41.8537 133.937 41.672C134.222 41.4904 134.404 41.2828 134.585 41.1011C134.897 40.7637 135.078 40.608 135.078 40.608C135.078 40.608 134.845 40.7118 134.456 40.9194C134.248 41.0233 134.014 41.153 133.703 41.2568C133.392 41.3606 133.08 41.5163 132.665 41.5682C132.483 41.5942 132.276 41.6461 132.068 41.698C131.86 41.7499 131.627 41.7499 131.393 41.7499C130.926 41.8018 130.433 41.7499 129.914 41.7499C128.876 41.6461 127.734 41.3866 126.566 40.9713C124.205 40.1669 121.636 38.7655 118.963 37.3901C116.264 36.0406 113.409 34.6393 110.451 33.9645C107.518 33.2379 104.767 33.4196 102.795 34.1462C102.302 34.3538 101.861 34.5355 101.472 34.769C101.082 35.0026 100.719 35.2361 100.408 35.4697C100.096 35.7292 99.8367 35.9628 99.6031 36.1963C99.4993 36.3001 99.3695 36.4299 99.2917 36.5337C99.2138 36.6635 99.11 36.7673 99.0322 36.8711C98.3834 37.7274 98.2017 38.4281 98.0979 38.8434C98.0201 39.2586 98.046 39.4662 98.046 39.4662L98.1239 39.3624Z" fill="white"/>
<path d="M143.483 5.52686C143.665 6.20159 143.82 6.85037 143.898 7.5251C143.976 8.22579 143.976 8.97837 143.846 9.86071C143.639 11.5735 142.99 13.5198 142.237 15.0769C141.303 17.1011 139.953 19.0734 138.267 20.7862C137.436 21.6426 136.502 22.447 135.464 23.1218C134.504 23.7705 133.258 24.3155 132.194 24.6529C133.336 24.7307 134.737 24.4193 135.905 24.082C137.177 23.7186 138.422 23.2256 139.59 22.6287C141.978 21.4349 144.209 19.9298 146.208 17.9575C147.739 16.4783 149.478 14.2205 150.308 11.2361C150.723 9.75691 150.853 8.04413 150.516 6.43515C150.204 4.80023 149.452 3.32101 148.517 2.28296C148.517 2.28296 148.465 2.23106 148.362 2.12726C148.258 2.02345 148.128 1.86774 147.946 1.71204C147.765 1.55633 147.531 1.40062 147.298 1.21896C147.168 1.14111 147.038 1.06326 146.908 0.985404C146.779 0.90755 146.623 0.855648 146.493 0.777794C146.208 0.648038 145.896 0.544234 145.611 0.46638C145.299 0.414478 145.014 0.388526 144.729 0.414478C144.184 0.46638 143.69 0.67399 143.353 1.14111C143.042 1.60823 142.938 2.12726 142.938 2.62033C142.938 2.87984 142.99 3.1134 143.016 3.34696C143.016 3.58052 143.094 3.81408 143.145 4.02169C143.145 4.1255 143.197 4.2293 143.223 4.33311C143.223 4.43691 143.249 4.54072 143.275 4.61857C143.301 4.80023 143.353 4.95594 143.405 5.08569C143.457 5.3452 143.509 5.50091 143.509 5.50091L143.483 5.52686Z" fill="white"/>
</svg>
