<svg width="161" height="68" viewBox="0 0 161 68" fill="none" xmlns="http://www.w3.org/2000/svg">
<path d="M54.2113 17.2278C55.6646 21.2502 57.8185 25.4024 60.725 29.2951C63.6316 33.1877 67.2388 36.8209 71.2612 39.9351C75.2577 43.0751 79.6435 45.6703 84.0033 47.7723C85.0673 48.2913 86.2091 48.7844 87.2991 49.2515C88.389 49.7187 89.453 50.1858 90.4911 50.575C91.0101 50.7827 91.5291 50.9643 92.0481 51.1719C92.5671 51.3536 93.0862 51.5093 93.6052 51.6909C94.6173 52.0543 95.6553 52.3138 96.6415 52.6252C106.996 55.5836 118.025 56.5438 129.106 58.594C130.508 58.8535 131.779 59.087 133.181 59.2687C134.556 59.4504 135.932 59.6061 137.333 59.7618C140.11 60.0732 142.938 60.4105 145.741 60.9036C148.336 61.3448 151.165 61.9676 153.838 62.9797C155.161 63.4987 156.459 64.0956 157.601 64.8741C158.743 65.6267 159.729 66.561 160.43 67.5731C158.846 65.6267 156.303 64.3292 153.656 63.4987C150.983 62.6683 148.181 62.2271 145.585 61.9676C142.783 61.6822 139.98 61.5524 137.177 61.4226C135.776 61.3707 134.375 61.3188 132.973 61.215C131.572 61.1372 130.119 60.9815 128.769 60.8258C117.714 59.6061 106.659 59.6061 95.4737 57.3743C94.4097 57.1407 93.2938 56.9331 92.1779 56.6476C91.6069 56.5179 91.036 56.3622 90.4651 56.2065C89.8942 56.0248 89.3232 55.8691 88.7264 55.6874C87.5326 55.3501 86.3908 54.9348 85.197 54.5196C84.0033 54.0785 82.8354 53.6632 81.6157 53.1702C76.7629 51.1979 71.8322 48.5509 67.2647 45.2031C62.7233 41.8554 58.5451 37.8071 55.3012 33.2656C52.0314 28.7501 49.6958 23.7415 48.4761 18.9405C48.4761 18.9405 48.4242 18.6551 48.2944 18.188C48.1906 17.6949 48.009 17.0202 47.9052 16.1638C47.5938 14.4769 47.4121 12.2192 47.438 9.96143C47.4899 7.70368 47.8014 5.47188 48.2944 3.83695C48.7875 2.20203 49.3844 1.16398 49.9553 1.18993C50.5262 1.29373 50.8376 2.43559 51.1231 4.01861C51.4086 5.60163 51.72 7.62582 52.1093 9.59811C52.5245 11.5704 52.9916 13.4908 53.4328 14.9181C53.6144 15.6188 53.848 16.2157 53.9777 16.6049C54.1075 17.0202 54.1853 17.2537 54.1853 17.2537L54.2113 17.2278Z" fill="white"/>
<path d="M1.76517 18.2132C1.76517 18.2132 1.86898 18.4208 2.31015 18.862C2.51776 19.0696 2.82917 19.3291 3.21844 19.6405C3.63366 19.926 4.15268 20.2893 4.80146 20.6785C6.09902 21.4311 7.99345 22.3135 10.6145 23.1699C13.2356 24.0262 16.6352 24.8567 20.9171 25.5574C25.1991 26.258 29.9222 26.7771 34.5934 27.3999C39.2646 27.9968 43.832 28.7494 47.8285 29.7615C51.825 30.7476 55.1727 32.0711 57.5083 33.2389C58.6502 33.8098 59.5844 34.3289 60.1813 34.7181C60.8041 35.0815 61.1155 35.2891 61.1155 35.2891C61.1155 35.2891 60.8301 35.0296 60.311 34.5365C59.792 34.0434 58.9875 33.3687 57.9495 32.5382C55.8474 30.9293 52.6554 28.957 48.6849 27.2701C44.7403 25.5833 40.0951 24.1301 35.4239 23.0401C30.7267 21.9242 26.0036 21.0678 21.7995 20.3671C17.5954 19.6924 14.2736 19.1993 11.6526 18.862C9.0315 18.5246 7.08516 18.291 5.6319 18.1872C4.90527 18.1353 4.30838 18.1094 3.81531 18.1094C3.32224 18.1094 2.93297 18.1094 2.64751 18.1094C2.05063 18.1613 1.81707 18.2391 1.81707 18.2391L1.76517 18.2132Z" fill="white"/>
<path d="M39.5736 3.81187C40.2743 5.73226 40.8971 7.99001 41.6497 10.2737C42.4023 12.5315 43.2587 14.7892 44.0891 16.5799C45.1272 18.9414 46.4507 21.1992 48.1375 23.3272C48.5527 23.8202 48.9679 24.3652 49.4351 24.8583C49.9022 25.3254 50.3693 25.8444 50.8883 26.3115C51.3814 26.7268 51.9004 27.1679 52.4454 27.6091C53.0163 27.9984 53.5872 28.3876 54.0803 28.7769C53.4834 28.5953 52.8347 28.3357 52.1859 28.0762C51.5371 27.7648 50.8883 27.4534 50.2915 27.1679C49.6427 26.8306 49.0458 26.4673 48.397 26.1299C47.7742 25.7666 47.2033 25.3514 46.5804 24.988C44.1929 23.3531 42.013 21.4587 40.0148 19.3047C38.4577 17.6698 36.7968 15.3601 35.5512 12.7131C34.3055 10.0921 33.5789 7.10767 33.6567 4.5385C33.6567 4.5385 33.7346 3.34475 34.0979 2.17694C34.565 0.983189 35.3176 -0.106761 36.4335 -0.0548588C37.5494 0.0489459 38.302 1.06104 38.7691 1.96933C39.3141 2.90358 39.5736 3.75997 39.5736 3.75997V3.81187Z" fill="white"/>
<path d="M81.666 19.9803C81.666 19.9803 81.4843 19.9543 81.147 19.9803C80.8096 20.0322 80.3165 20.1879 79.6677 20.5512C79.0709 20.9405 78.2923 21.5633 77.5657 22.6014C76.8131 23.6135 76.0605 25.0667 75.5156 26.9612C74.9446 28.8556 74.7111 31.0874 74.763 33.2673C74.8149 35.4472 75.1782 37.6011 75.7232 39.4177C76.2941 41.2603 77.0207 42.7395 77.6436 43.7256C77.929 44.2187 78.2404 44.582 78.4221 44.8415C78.6037 45.101 78.7076 45.2308 78.7076 45.2308C78.7076 45.2308 78.6816 45.0751 78.6297 44.7637C78.5778 44.4523 78.474 44.037 78.4221 43.4661C78.2923 42.3762 78.2404 40.845 78.3442 39.1323C78.6037 35.7067 79.6418 31.6324 80.602 28.4404C81.5362 25.2484 81.9255 23.302 81.9255 21.9526C81.9515 21.3038 81.8995 20.8107 81.8217 20.4734C81.7438 20.136 81.666 19.9803 81.666 19.9803Z" fill="white"/>
<path d="M84.6237 51.1199C84.6237 51.1199 84.3641 51.3016 83.6116 51.5611C83.2482 51.6909 82.7552 51.8466 82.1064 52.0023C81.4576 52.1839 80.6531 52.3915 79.6929 52.5732C77.7466 53.0144 75.0736 53.5074 71.4664 54.1822C67.8332 54.8569 63.2658 55.6614 57.4268 56.6216C51.5878 57.5558 44.9962 58.4641 38.3527 58.9053C35.0309 59.1129 31.7092 59.1908 28.4653 59.1129C25.2214 59.0091 22.1073 58.7236 19.2007 58.2825C13.3617 57.4001 8.48287 55.7392 5.16113 54.3119C3.50024 53.5593 2.20268 52.9365 1.3463 52.4694C0.489906 52.0023 -0.0031662 51.7428 -0.0031662 51.7428C-0.0031662 51.7428 0.515862 51.9244 1.42416 52.2618C2.33245 52.6251 3.70786 53.0403 5.42063 53.5593C8.87214 54.5195 13.7769 55.4797 19.4343 55.6614C22.263 55.7652 25.2733 55.7392 28.3874 55.5316C31.5016 55.324 34.6936 54.9607 37.8856 54.5195C44.2696 53.6372 50.7055 52.3915 56.5704 51.4573C62.4354 50.5231 67.1585 50.004 70.9214 49.8224C74.6844 49.6407 77.4871 49.7964 79.5113 50.004C80.5234 50.1338 81.3538 50.2635 82.0026 50.3933C82.6773 50.549 83.1704 50.6788 83.5597 50.8085C84.3122 51.0421 84.5718 51.1978 84.5718 51.1978L84.6237 51.1199Z" fill="white"/>
<path d="M95.1861 53.4545C95.1861 53.4545 94.9784 53.5583 94.3556 53.6102C94.0442 53.6362 93.6549 53.6102 93.11 53.5583C92.8504 53.5324 92.565 53.4805 92.2276 53.3767C91.9162 53.2729 91.5529 53.195 91.1636 53.0133C90.7744 52.8576 90.3591 52.676 89.9439 52.4165C89.5027 52.1829 89.0875 51.8455 88.6204 51.4822C87.7381 50.7296 86.7779 49.6656 86.0253 48.2643C85.2727 46.8629 84.6499 45.0982 84.5201 43.0221C84.4423 41.9841 84.5201 40.8682 84.7018 39.7263C84.9094 38.5585 85.2987 37.3648 85.8955 36.197C87.0893 33.8354 89.2173 31.6555 91.8903 30.5396C93.2138 29.9687 94.5892 29.6313 95.9905 29.4756C96.6912 29.4497 97.3919 29.3718 98.0407 29.4237C98.378 29.4237 98.7154 29.4237 99.0528 29.4756L100.065 29.6054C102.712 29.9687 105.437 31.0327 107.435 33.005C108.421 33.9911 109.2 35.1849 109.641 36.4565C110.082 37.754 110.16 39.1295 109.874 40.4011C109.589 41.6727 108.888 42.7886 108.006 43.5671C107.124 44.3456 106.112 44.8128 105.177 45.0204L104.84 45.1242L104.503 45.1761C104.269 45.202 104.035 45.228 103.828 45.2799C103.387 45.2799 102.945 45.3318 102.556 45.2799C101.752 45.228 101.025 45.0982 100.376 44.9685C99.0787 44.6311 98.1185 44.2678 97.4438 43.9823C96.795 43.6969 96.4317 43.5412 96.4317 43.5412C96.4317 43.5412 96.821 43.619 97.4957 43.7747C98.1704 43.9304 99.2085 44.0861 100.454 44.164C101.077 44.164 101.778 44.164 102.504 44.0602C102.868 44.0342 103.231 43.9304 103.594 43.8526C103.776 43.8007 103.958 43.7228 104.139 43.6709L104.425 43.5931L104.684 43.4633C106.112 42.8664 107.253 41.5429 107.331 39.9858C107.435 38.4288 106.553 36.7679 105.125 35.7298C103.672 34.6658 101.752 34.1209 99.7275 34.069H98.9749L98.2223 34.0949C97.7033 34.0949 97.2362 34.1987 96.7691 34.2506C95.8348 34.4323 94.9525 34.7437 94.174 35.133C92.6169 35.9115 91.475 37.2091 90.7484 38.6104C90.3851 39.3111 90.1256 40.0637 89.9699 40.7903C89.8142 41.517 89.7104 42.2176 89.7104 42.8924C89.6585 44.2418 89.918 45.4356 90.2294 46.4736C90.5667 47.5117 90.982 48.3681 91.4231 49.0947C91.6567 49.4321 91.8643 49.7954 92.1238 50.0809C92.3314 50.3923 92.565 50.6518 92.7985 50.8853C93.0062 51.1449 93.2138 51.3525 93.4214 51.5601C93.603 51.7677 93.7847 51.9493 93.9663 52.105C94.3037 52.4424 94.5632 52.7019 94.7708 52.8836C95.1861 53.2988 95.3158 53.5064 95.3158 53.5064L95.1861 53.4545Z" fill="white"/>
<path d="M62.2804 39.3624C62.2804 39.3624 62.0728 39.3883 61.6576 39.3624C61.2424 39.3105 60.6195 39.1548 59.7891 38.9472C59.6853 38.9212 59.5815 38.8953 59.4777 38.8693C59.3739 38.8693 59.2441 38.8174 59.1144 38.8174C58.8808 38.7655 58.6213 38.7136 58.3618 38.6617C58.0763 38.6357 57.7908 38.5838 57.5054 38.5319C57.194 38.48 56.8826 38.48 56.5452 38.4541C56.2078 38.4541 55.8445 38.4541 55.4552 38.4541C55.066 38.48 54.6508 38.4541 54.2096 38.5579C53.3272 38.6357 52.2892 38.8174 51.1214 39.1029C48.7598 39.6478 45.9831 40.608 43.1025 41.5163C40.2219 42.4246 37.1856 43.307 34.331 43.5405C32.9037 43.6703 31.5542 43.6184 30.3604 43.4108C29.7636 43.2551 29.2186 43.1512 28.7255 42.9436C28.492 42.8398 28.2324 42.762 28.0248 42.6582C27.8172 42.5544 27.6096 42.4246 27.428 42.3208C27.0387 42.1391 26.7532 41.8537 26.4678 41.672C26.1823 41.4904 26.0006 41.2828 25.819 41.1011C25.5076 40.7637 25.3259 40.608 25.3259 40.608C25.3259 40.608 25.5595 40.7118 25.9487 40.9194C26.1563 41.0233 26.3899 41.153 26.7013 41.2568C27.0127 41.3606 27.3242 41.5163 27.7394 41.5682C27.921 41.5942 28.1286 41.6461 28.3363 41.698C28.5439 41.7499 28.7774 41.7499 29.011 41.7499C29.4781 41.8018 29.9712 41.7499 30.4902 41.7499C31.5282 41.6461 32.6701 41.3866 33.8379 40.9713C36.1995 40.1669 38.7686 38.7655 41.4416 37.3901C44.1405 36.0406 46.9952 34.6393 49.9536 33.9645C52.8861 33.2379 55.6369 33.4196 57.6092 34.1462C58.1023 34.3538 58.5434 34.5355 58.9327 34.769C59.322 35.0026 59.6853 35.2361 59.9967 35.4697C60.3081 35.7292 60.5676 35.9628 60.8012 36.1963C60.905 36.3001 61.0348 36.4299 61.1126 36.5337C61.1905 36.6635 61.2943 36.7673 61.3721 36.8711C62.0209 37.7274 62.2026 38.4281 62.3064 38.8434C62.3842 39.2586 62.3583 39.4662 62.3583 39.4662L62.2804 39.3624Z" fill="white"/>
<path d="M16.9215 5.52686C16.7398 6.20159 16.5841 6.85037 16.5062 7.5251C16.4284 8.22579 16.4284 8.97837 16.5581 9.86071C16.7658 11.5735 17.4145 13.5198 18.1671 15.0769C19.1014 17.1011 20.4508 19.0734 22.1377 20.7862C22.9681 21.6426 23.9023 22.447 24.9404 23.1218C25.9006 23.7705 27.1462 24.3155 28.2102 24.6529C27.0684 24.7307 25.667 24.4193 24.4992 24.082C23.2276 23.7186 21.9819 23.2256 20.8141 22.6287C18.4266 21.4349 16.1948 19.9298 14.1966 17.9575C12.6655 16.4783 10.9267 14.2205 10.0963 11.2361C9.68109 9.75691 9.55133 8.04413 9.88869 6.43515C10.2001 4.80023 10.9527 3.32101 11.8869 2.28296C11.8869 2.28296 11.9388 2.23106 12.0426 2.12726C12.1465 2.02345 12.2762 1.86774 12.4579 1.71204C12.6395 1.55633 12.8731 1.40062 13.1066 1.21896C13.2364 1.14111 13.3662 1.06326 13.4959 0.985404C13.6257 0.90755 13.7814 0.855648 13.9111 0.777794C14.1966 0.648038 14.508 0.544234 14.7935 0.46638C15.1049 0.414478 15.3903 0.388526 15.6758 0.414478C16.2208 0.46638 16.7139 0.67399 17.0512 1.14111C17.3626 1.60823 17.4664 2.12726 17.4664 2.62033C17.4664 2.87984 17.4145 3.1134 17.3886 3.34696C17.3886 3.58052 17.3107 3.81408 17.2588 4.02169C17.2588 4.1255 17.2069 4.2293 17.181 4.33311C17.181 4.43691 17.155 4.54072 17.1291 4.61857C17.1031 4.80023 17.0512 4.95594 16.9993 5.08569C16.9474 5.3452 16.8955 5.50091 16.8955 5.50091L16.9215 5.52686Z" fill="white"/>
</svg>
