<svg width="126" height="40" viewBox="0 0 126 40" fill="none" xmlns="http://www.w3.org/2000/svg">
<path d="M31.7953 16.3513C31.4439 25.4918 23.2754 31.5406 15.1032 30.6134V24.4749C20.0492 25.3572 25.6568 22.8001 26.0082 16.2167C26.1839 12.2877 23.6231 8.93055 20.18 7.60715C13.7761 5.13605 6.5347 10.168 7.6824 17.2785V33.5294C7.6824 36.4865 5.25624 38.9165 2.25054 38.9165H1.85425V17.2822C1.54396 13.6185 2.56077 9.8203 4.90103 6.94918C2.20936 6.94918 0 4.74349 0 2.00322V1.16208C7.68247 1.16208 8.74043 0.98637 16.4266 1.16208C18.8118 1.20694 20.2249 1.25181 22.5203 2.17894C27.9934 4.42948 32.0122 10.1268 31.7916 16.3551L31.7953 16.3513Z" fill="white"/>
<path d="M44.429 29V10.657H51.6659C53.0572 10.657 54.2424 10.9227 55.2217 11.4541C56.2009 11.9795 56.9473 12.711 57.4608 13.6485C57.9803 14.5799 58.24 15.6547 58.24 16.8728C58.24 18.0909 57.9773 19.1657 57.4519 20.0972C56.9264 21.0287 56.1651 21.7541 55.1679 22.2736C54.1768 22.7931 52.9766 23.0528 51.5674 23.0528H46.9548V19.9449H50.9404C51.6868 19.9449 52.3018 19.8165 52.7855 19.5598C53.2751 19.2971 53.6394 18.9358 53.8782 18.476C54.123 18.0103 54.2454 17.4759 54.2454 16.8728C54.2454 16.2638 54.123 15.7323 53.8782 15.2785C53.6394 14.8188 53.2751 14.4635 52.7855 14.2127C52.2959 13.956 51.6749 13.8276 50.9225 13.8276H48.3072V29H44.429ZM63.9985 10.657V29H60.183V10.657H63.9985ZM70.4735 29.2597C69.5957 29.2597 68.8135 29.1075 68.1268 28.803C67.4402 28.4925 66.8968 28.0357 66.4967 27.4326C66.1027 26.8236 65.9056 26.0652 65.9056 25.1576C65.9056 24.3933 66.0459 23.7515 66.3266 23.232C66.6072 22.7125 66.9894 22.2945 67.473 21.9781C67.9567 21.6616 68.506 21.4227 69.121 21.2615C69.742 21.1003 70.3928 20.9869 71.0735 20.9212C71.8737 20.8376 72.5185 20.76 73.0082 20.6883C73.4978 20.6107 73.8531 20.4972 74.074 20.348C74.2949 20.1987 74.4054 19.9778 74.4054 19.6852V19.6314C74.4054 19.0642 74.2263 18.6253 73.868 18.3148C73.5157 18.0043 73.0141 17.8491 72.3633 17.8491C71.6766 17.8491 71.1303 18.0013 70.7242 18.3059C70.3182 18.6044 70.0495 18.9806 69.9181 19.4344L66.3893 19.1478C66.5684 18.3118 66.9207 17.5893 67.4461 16.9803C67.9716 16.3653 68.6493 15.8936 69.4793 15.5652C70.3152 15.2308 71.2825 15.0636 72.3812 15.0636C73.1455 15.0636 73.8769 15.1532 74.5756 15.3323C75.2801 15.5114 75.9041 15.7891 76.4475 16.1652C76.9968 16.5414 77.4297 17.0251 77.7462 17.6162C78.0626 18.2014 78.2209 18.903 78.2209 19.721V29H74.6024V27.0923H74.495C74.274 27.5222 73.9785 27.9013 73.6083 28.2297C73.238 28.5522 72.7932 28.8059 72.2737 28.991C71.7542 29.1702 71.1542 29.2597 70.4735 29.2597ZM71.5662 26.6265C72.1274 26.6265 72.623 26.516 73.0529 26.2951C73.4829 26.0682 73.8202 25.7637 74.065 25.3815C74.3098 24.9994 74.4323 24.5665 74.4323 24.0828V22.6229C74.3128 22.7006 74.1486 22.7722 73.9396 22.8379C73.7366 22.8976 73.5067 22.9543 73.25 23.0081C72.9932 23.0558 72.7365 23.1006 72.4797 23.1424C72.223 23.1782 71.9901 23.2111 71.7811 23.2409C71.3333 23.3066 70.9422 23.4111 70.6078 23.5544C70.2734 23.6977 70.0137 23.8918 69.8286 24.1366C69.6435 24.3754 69.5509 24.674 69.5509 25.0322C69.5509 25.5517 69.739 25.9488 70.1152 26.2235C70.4973 26.4922 70.981 26.6265 71.5662 26.6265ZM87.9941 15.2427V18.1088H79.7093V15.2427H87.9941ZM81.5902 11.9467H85.4057V24.7725C85.4057 25.1248 85.4594 25.3995 85.5669 25.5965C85.6744 25.7876 85.8236 25.9219 86.0147 25.9996C86.2117 26.0772 86.4386 26.116 86.6954 26.116C86.8745 26.116 87.0537 26.1011 87.2328 26.0712C87.4119 26.0354 87.5493 26.0085 87.6448 25.9906L88.2449 28.8298C88.0538 28.8895 87.7851 28.9582 87.4388 29.0358C87.0925 29.1194 86.6715 29.1702 86.1759 29.1881C85.2564 29.2239 84.4503 29.1015 83.7576 28.8209C83.071 28.5402 82.5366 28.1043 82.1544 27.5132C81.7723 26.9221 81.5842 26.1757 81.5902 25.2741V11.9467ZM89.9751 29V15.2427H93.7906V29H89.9751ZM91.8918 13.4693C91.3246 13.4693 90.8379 13.2812 90.4319 12.9051C90.0318 12.5229 89.8318 12.0661 89.8318 11.5347C89.8318 11.0093 90.0318 10.5584 90.4319 10.1823C90.8379 9.80012 91.3246 9.60905 91.8918 9.60905C92.4591 9.60905 92.9427 9.80012 93.3428 10.1823C93.7488 10.5584 93.9518 11.0093 93.9518 11.5347C93.9518 12.0661 93.7488 12.5229 93.3428 12.9051C92.9427 13.2812 92.4591 13.4693 91.8918 13.4693ZM102.612 29.2687C101.197 29.2687 99.979 28.9821 98.9579 28.4089C97.9428 27.8297 97.1606 27.0116 96.6113 25.9548C96.062 24.8919 95.7873 23.635 95.7873 22.1841C95.7873 20.7689 96.062 19.5269 96.6113 18.4581C97.1606 17.3893 97.9339 16.5564 98.931 15.9592C99.9342 15.3621 101.11 15.0636 102.46 15.0636C103.368 15.0636 104.212 15.2099 104.995 15.5025C105.783 15.7891 106.469 16.222 107.055 16.8012C107.646 17.3804 108.106 18.1088 108.434 18.9866C108.762 19.8583 108.927 20.8794 108.927 22.0497V23.0976H97.3099V20.7331H105.335C105.335 20.1838 105.216 19.6971 104.977 19.2732C104.738 18.8492 104.406 18.5178 103.983 18.279C103.565 18.0342 103.078 17.9118 102.523 17.9118C101.943 17.9118 101.43 18.0461 100.982 18.3148C100.54 18.5775 100.194 18.9328 99.9431 19.3807C99.6924 19.8225 99.564 20.3151 99.558 20.8585V23.1066C99.558 23.7873 99.6834 24.3754 99.9342 24.871C100.191 25.3666 100.552 25.7488 101.018 26.0175C101.484 26.2862 102.036 26.4205 102.675 26.4205C103.099 26.4205 103.487 26.3608 103.839 26.2414C104.192 26.122 104.493 25.9428 104.744 25.704C104.995 25.4651 105.186 25.1726 105.317 24.8262L108.846 25.0591C108.667 25.907 108.3 26.6474 107.744 27.2803C107.195 27.9073 106.484 28.3969 105.613 28.7492C104.747 29.0955 103.747 29.2687 102.612 29.2687ZM119.734 23.1424V15.2427H123.55V29H119.887V26.5011H119.743C119.433 27.3072 118.916 27.9551 118.194 28.4447C117.477 28.9343 116.602 29.1791 115.569 29.1791C114.65 29.1791 113.841 28.9701 113.142 28.5522C112.444 28.1342 111.897 27.5401 111.503 26.7698C111.115 25.9996 110.918 25.077 110.912 24.0022V15.2427H114.728V23.3215C114.734 24.1336 114.951 24.7755 115.381 25.2472C115.811 25.7189 116.388 25.9548 117.11 25.9548C117.57 25.9548 118 25.8503 118.4 25.6413C118.8 25.4263 119.122 25.1099 119.367 24.6919C119.618 24.2739 119.74 23.7574 119.734 23.1424Z" fill="white"/>
</svg>
