<svg width="32" height="38" viewBox="0 0 32 38" fill="none" xmlns="http://www.w3.org/2000/svg">
<path d="M31.7958 15.2673C31.4444 24.4078 23.2759 30.4566 15.1037 29.5295V23.391C20.0497 24.2732 25.6573 21.7161 26.0087 15.1328C26.1844 11.2037 23.6236 7.84657 20.1805 6.52316C13.7766 4.05206 6.53521 9.08399 7.6829 16.1945V32.4454C7.6829 35.4025 5.25674 37.8325 2.25105 37.8325H1.85475V16.1982C1.54446 12.5345 2.56128 8.73631 4.90153 5.8652C2.20986 5.8652 0.00050354 3.65951 0.00050354 0.919238V0.0780916C7.68298 0.0780916 8.74093 -0.0976146 16.4271 0.0780916C18.8123 0.122953 20.2254 0.167826 22.5208 1.09496C27.9939 3.34549 32.0127 9.04285 31.7921 15.2711L31.7958 15.2673Z" fill="white"/>
</svg>
