<svg width="20" height="20" viewBox="0 0 20 20" fill="none" xmlns="http://www.w3.org/2000/svg">
<path d="M13.3335 10.834H15.0002C15.921 10.834 16.6668 11.5798 16.6668 12.5007V12.5007C16.6668 13.4215 15.921 14.1673 15.0002 14.1673H5.00016C4.07933 14.1673 3.3335 14.9132 3.3335 15.834V15.834C3.3335 16.7548 4.07933 17.5007 5.00016 17.5007H8.3335" stroke="#FDFDFD" stroke-width="1.5" stroke-linecap="round" stroke-linejoin="round"/>
<path fill-rule="evenodd" clip-rule="evenodd" d="M9.16683 10.8333C9.16683 10.8333 12.5002 8.17167 12.5002 5.74083C12.5002 3.95083 11.0077 2.5 9.16683 2.5C7.326 2.5 5.8335 3.95083 5.8335 5.74083C5.8335 8.17167 9.16683 10.8333 9.16683 10.8333Z" stroke="#FDFDFD" stroke-width="1.5" stroke-linecap="round" stroke-linejoin="round"/>
<path d="M9.16757 5.60143C9.29924 5.60143 9.40507 5.7056 9.40507 5.8331C9.40507 5.9606 9.29841 6.06393 9.16674 6.06393C9.03507 6.06393 8.92924 5.9606 8.92924 5.83227C8.92841 5.7056 9.03507 5.60143 9.16757 5.60143" stroke="#FDFDFD" stroke-width="1.5" stroke-linecap="round" stroke-linejoin="round"/>
</svg>
