<svg width="78" height="18" viewBox="0 0 78 18" fill="none" xmlns="http://www.w3.org/2000/svg">
<path d="M10.2977 2.63297L11.6177 5.27297C11.7977 5.64047 12.2777 5.99297 12.6827 6.06047L15.0752 6.45797C16.6052 6.71297 16.9652 7.82297 15.8627 8.91797L14.0027 10.778C13.6877 11.093 13.5152 11.7005 13.6127 12.1355L14.1452 14.438C14.5652 16.2605 13.5977 16.9655 11.9852 16.013L9.74268 14.6855C9.33768 14.4455 8.67018 14.4455 8.25768 14.6855L6.01518 16.013C4.41018 16.9655 3.43518 16.253 3.85518 14.438L4.38768 12.1355C4.48518 11.7005 4.31268 11.093 3.99768 10.778L2.13768 8.91797C1.04268 7.82297 1.39518 6.71297 2.92518 6.45797L5.31768 6.06047C5.71518 5.99297 6.19518 5.64047 6.37518 5.27297L7.69518 2.63297C8.41518 1.20047 9.58518 1.20047 10.2977 2.63297Z" fill="#F79009"/>
<path d="M30.2977 2.63297L31.6177 5.27297C31.7977 5.64047 32.2777 5.99297 32.6827 6.06047L35.0752 6.45797C36.6052 6.71297 36.9652 7.82297 35.8627 8.91797L34.0027 10.778C33.6877 11.093 33.5152 11.7005 33.6127 12.1355L34.1452 14.438C34.5652 16.2605 33.5977 16.9655 31.9852 16.013L29.7427 14.6855C29.3377 14.4455 28.6702 14.4455 28.2577 14.6855L26.0152 16.013C24.4102 16.9655 23.4352 16.253 23.8552 14.438L24.3877 12.1355C24.4852 11.7005 24.3127 11.093 23.9977 10.778L22.1377 8.91797C21.0427 7.82297 21.3952 6.71297 22.9252 6.45797L25.3177 6.06047C25.7152 5.99297 26.1952 5.64047 26.3752 5.27297L27.6952 2.63297C28.4152 1.20047 29.5852 1.20047 30.2977 2.63297Z" fill="#F79009"/>
<path d="M50.2977 2.63297L51.6177 5.27297C51.7977 5.64047 52.2777 5.99297 52.6827 6.06047L55.0752 6.45797C56.6052 6.71297 56.9652 7.82297 55.8627 8.91797L54.0027 10.778C53.6877 11.093 53.5152 11.7005 53.6127 12.1355L54.1452 14.438C54.5652 16.2605 53.5977 16.9655 51.9852 16.013L49.7427 14.6855C49.3377 14.4455 48.6702 14.4455 48.2577 14.6855L46.0152 16.013C44.4102 16.9655 43.4352 16.253 43.8552 14.438L44.3877 12.1355C44.4852 11.7005 44.3127 11.093 43.9977 10.778L42.1377 8.91797C41.0427 7.82297 41.3952 6.71297 42.9252 6.45797L45.3177 6.06047C45.7152 5.99297 46.1952 5.64047 46.3752 5.27297L47.6952 2.63297C48.4152 1.20047 49.5852 1.20047 50.2977 2.63297Z" fill="#F79009"/>
<path d="M70.2977 2.63297L71.6177 5.27297C71.7977 5.64047 72.2777 5.99297 72.6827 6.06047L75.0752 6.45797C76.6052 6.71297 76.9652 7.82297 75.8627 8.91797L74.0027 10.778C73.6877 11.093 73.5152 11.7005 73.6127 12.1355L74.1452 14.438C74.5652 16.2605 73.5977 16.9655 71.9852 16.013L69.7427 14.6855C69.3377 14.4455 68.6702 14.4455 68.2577 14.6855L66.0152 16.013C64.4102 16.9655 63.4352 16.253 63.8552 14.438L64.3877 12.1355C64.4852 11.7005 64.3127 11.093 63.9977 10.778L62.1377 8.91797C61.0427 7.82297 61.3952 6.71297 62.9252 6.45797L65.3177 6.06047C65.7152 5.99297 66.1952 5.64047 66.3752 5.27297L67.6952 2.63297C68.4152 1.20047 69.5852 1.20047 70.2977 2.63297Z" fill="#F79009"/>
</svg>
