<svg width="263" height="76" viewBox="0 0 263 76" fill="none" xmlns="http://www.w3.org/2000/svg">
<path d="M210.377 64.585C248.21 64.585 262.505 75.4814 262.505 75.4814C255.71 73.4612 245.822 68.6865 214.142 68.6865C182.461 68.6866 175.666 73.645 157.27 74.1348C138.578 74.6538 131.315 67.5234 131.283 67.4922H131.222C131.222 67.4922 123.967 74.6551 105.234 74.1348C86.8688 73.645 80.0429 68.6865 48.3623 68.6865C16.6821 68.6865 6.79524 73.4306 0 75.4814C0.0498497 75.4436 14.3907 64.585 52.127 64.585C85.8581 64.585 85.8587 72.0839 110.713 72.084C124.313 72.084 131.231 65.2787 131.252 65.2578C131.252 65.2578 138.17 72.084 151.791 72.084C176.646 72.084 176.646 64.585 210.377 64.585ZM60.3936 50.2002C60.3936 50.2002 60.7307 50.4755 61.3428 51.0264C61.6489 51.2712 62.0164 51.6389 62.4756 51.9756C62.9346 52.3122 63.4851 52.7103 64.0664 53.1387C66.4845 54.761 70.158 56.5976 74.627 57.8525C79.0653 59.1687 84.2382 59.9338 89.4111 60.1787C91.9823 60.2705 94.5842 60.24 97.0635 60.0869C97.6755 60.0257 98.2571 59.9958 98.8691 59.9346C99.42 59.8122 100.002 59.6895 100.553 59.5977C101.134 59.5058 101.655 59.444 102.236 59.291C102.818 59.138 103.369 58.9851 103.92 58.832C108.358 57.6077 112.093 56.3834 115.185 55.71C116.715 55.3733 118.123 55.1892 119.316 55.0361C120.571 54.9443 121.643 54.9756 122.5 54.9756C123.388 54.9756 124.123 55.1901 124.704 55.3125C125.285 55.4655 125.714 55.6178 126.051 55.7402C126.694 56.0157 126.907 56.2002 126.907 56.2002C126.896 56.21 126.649 56.4226 126.081 56.7812C125.775 56.9649 125.377 57.1487 124.888 57.3936C124.398 57.6384 123.785 57.8218 123.051 58.2197C122.316 58.587 121.459 58.9543 120.449 59.3828C119.409 59.8725 118.245 60.3625 116.868 60.9746C114.113 62.1684 110.593 63.7906 105.604 65.168C104.961 65.321 104.318 65.5052 103.675 65.6582C103.032 65.8112 102.298 65.8727 101.594 65.9951C100.89 66.0869 100.186 66.1787 99.4512 66.2705C98.7472 66.3011 98.0126 66.331 97.3086 66.3311C94.4926 66.3311 91.6458 66.0867 88.8604 65.6582C83.2895 64.7399 77.9022 63.0561 73.4639 60.8828C68.9643 58.7402 65.5359 56.0775 63.4238 53.9043C62.9035 53.3534 62.4448 52.8328 62.0469 52.4043C61.649 51.9758 61.3728 51.5476 61.1279 51.2109C60.6688 50.5681 60.3936 50.2002 60.3936 50.2002ZM201.471 51.2109C201.226 51.517 200.95 51.9759 200.553 52.4043C200.155 52.8328 199.695 53.3533 199.175 53.9043C197.063 56.0774 193.604 58.7709 189.136 60.8828C184.697 63.0866 179.31 64.7705 173.739 65.6582C170.954 66.0867 168.107 66.331 165.291 66.3311C164.557 66.3005 163.852 66.2705 163.148 66.2705C162.445 66.1787 161.71 66.0869 161.006 65.9951C160.302 65.9033 159.567 65.8112 158.924 65.6582C158.251 65.5052 157.639 65.321 156.996 65.168C151.976 63.7906 148.456 62.1684 145.701 60.9746C144.324 60.3624 143.16 59.9032 142.15 59.3828C141.14 58.9543 140.283 58.587 139.549 58.2197C138.814 57.8218 138.202 57.6384 137.712 57.3936C137.222 57.1793 136.824 56.9649 136.518 56.7812C135.914 56.4193 135.697 56.2062 135.691 56.2002H135.723C135.724 56.1987 135.939 55.9842 136.579 55.7402C136.916 55.5872 137.344 55.4655 137.926 55.3125C138.507 55.1595 139.273 54.9756 140.13 54.9756C141.018 54.945 142.089 54.9137 143.313 55.0361C144.477 55.1892 145.915 55.3733 147.445 55.71C150.567 56.3834 154.272 57.6383 158.71 58.832C159.261 58.9851 159.812 59.138 160.394 59.291C160.944 59.444 161.495 59.4753 162.046 59.5977C162.597 59.7201 163.148 59.8121 163.729 59.9346C164.342 59.9958 164.923 60.0257 165.535 60.0869C168.014 60.24 170.616 60.2705 173.188 60.1787C178.36 59.9338 183.533 59.1687 187.972 57.8525C192.441 56.5976 196.114 54.7916 198.532 53.1387C199.114 52.7101 199.665 52.3123 200.124 51.9756C200.583 51.6389 200.951 51.3018 201.257 51.0264C201.862 50.5121 202.198 50.2071 202.205 50.2002C202.201 50.2061 201.956 50.5435 201.471 51.2109ZM131.283 0C131.283 0.859035 131.622 8.08226 139.763 20.1709C144.109 26.6294 142.823 31.6191 138.477 36.6084C135.844 39.6695 131.283 47.842 131.283 64.5234C131.283 47.8422 126.754 39.6389 124.091 36.6084C119.744 31.6191 118.458 26.6601 122.805 20.1709C130.945 8.08229 131.283 0.859035 131.283 0ZM153.659 34.4385C155.128 33.8263 157.026 33.3976 159.353 34.0098C160.485 34.3159 161.71 34.9591 162.72 35.9385C163.209 36.4587 163.607 36.9485 164.066 37.7441C164.403 38.4787 164.617 39.0298 164.771 39.7949C165.107 41.2639 165.015 42.8861 164.587 44.2939C164.128 45.702 163.392 46.9271 162.535 47.9678C160.79 50.0184 158.679 51.4575 156.077 52.3145L156.261 52.2529C154.21 53.0181 152.435 52.9876 150.812 52.957C149.19 52.8958 147.721 52.6817 146.312 52.498C143.558 52.1308 141.079 51.8545 139.059 52.1299C137.038 52.3748 135.569 53.416 134.896 54.4873C134.467 54.9464 134.344 55.4667 134.13 55.7422C133.977 56.0482 133.886 56.2324 133.886 56.2324C133.886 56.2324 133.916 56.0485 133.978 55.7119C134.069 55.3752 134.069 54.824 134.375 54.2119C134.742 52.9264 136.15 51.1205 138.477 50.2021C140.772 49.2533 143.588 48.947 146.404 48.7021C147.812 48.5797 149.251 48.4883 150.598 48.3047C151.914 48.1211 153.2 47.7842 153.965 47.3252L154.148 47.2637C155.465 46.5903 156.812 45.3959 157.607 44.2021C158.005 43.6208 158.281 43.0091 158.403 42.5195C158.526 42.0298 158.495 41.6313 158.403 41.2334C158.403 41.0803 158.25 40.8047 158.25 40.7129C158.281 40.7129 158.159 40.529 158.098 40.4678C157.945 40.2842 157.761 40.1315 157.485 39.9785C156.934 39.703 156.107 39.6113 155.403 39.7031C155.036 39.7032 154.73 39.8255 154.424 39.8867C154.118 39.9784 154.026 39.9477 153.843 40.0088C153.506 40.1006 153.169 40.3459 152.985 40.6826C152.588 41.3254 152.71 42.0601 152.74 42.5498C152.832 43.0395 152.832 43.3457 152.832 43.3457L152.771 43.2842C152.771 43.2842 152.527 43.345 151.945 43.2227C151.67 43.1309 151.241 42.9784 150.812 42.6113C150.384 42.2441 149.833 41.6622 149.588 40.7441C149.343 39.8565 149.405 38.6007 150.17 37.3457C150.537 36.7336 151.149 36.0603 151.7 35.6318C152.251 35.1728 152.925 34.7445 153.659 34.4385ZM103.307 33.9424C105.602 33.3303 107.5 33.7589 109 34.3711C109.735 34.6772 110.408 35.1063 110.959 35.5654C111.51 35.994 112.122 36.6673 112.489 37.2793C113.254 38.5342 113.315 39.7585 113.07 40.6768C112.825 41.5948 112.306 42.1766 111.847 42.5439C111.388 42.9113 110.989 43.0644 110.714 43.1562C110.142 43.2766 109.896 43.2188 109.888 43.2168L109.826 43.2783C109.826 43.2705 109.827 42.9953 109.918 42.4824C109.949 41.9927 110.071 41.2579 109.673 40.6152C109.489 40.3094 109.153 40.0343 108.816 39.9424C108.633 39.8812 108.54 39.9112 108.234 39.8193C107.959 39.7581 107.622 39.6663 107.255 39.6357C106.551 39.5746 105.725 39.6358 105.174 39.9111C104.898 40.0336 104.715 40.1871 104.562 40.4014C104.5 40.493 104.379 40.6758 104.408 40.6465C104.408 40.7084 104.255 40.9827 104.255 41.166C104.163 41.5639 104.163 41.9318 104.255 42.4521C104.377 42.9419 104.653 43.5236 105.051 44.1357C105.847 45.3294 107.163 46.5229 108.51 47.1963L108.693 47.2578C109.459 47.7169 110.744 48.0536 112.061 48.2373C113.377 48.4516 114.846 48.5123 116.254 48.6348C119.07 48.8796 121.917 49.186 124.182 50.1348C126.508 51.053 127.916 52.859 128.283 54.1445C128.589 54.7567 128.59 55.3078 128.682 55.6445C128.743 55.9812 128.773 56.165 128.773 56.165C128.773 56.165 128.681 56.0115 128.528 55.6748C128.345 55.3992 128.191 54.8789 127.763 54.4199C127.089 53.3794 125.59 52.3084 123.601 52.0635C121.58 51.788 119.101 52.0634 116.346 52.4307C114.938 52.6143 113.469 52.8284 111.847 52.8896C110.224 52.9203 108.448 52.9508 106.397 52.1855L106.582 52.2471C103.98 51.39 101.868 49.9512 100.123 47.9004C99.266 46.8597 98.5314 45.6661 98.0723 44.2275C97.6131 42.8195 97.552 41.1968 97.8887 39.7275C98.0417 38.9625 98.2867 38.4419 98.5928 37.6768C99.0212 36.8811 99.4192 36.3914 99.9395 35.8711C100.95 34.861 102.174 34.2485 103.307 33.9424Z" fill="url(#paint0_linear_12127_4504)"/>
<defs>
<linearGradient id="paint0_linear_12127_4504" x1="-0.0449219" y1="68.1477" x2="205.398" y2="68.1477" gradientUnits="userSpaceOnUse">
<stop stop-color="#EFC371"/>
<stop offset="1" stop-color="#C59A49"/>
</linearGradient>
</defs>
</svg>
